<svg xmlns="http://www.w3.org/2000/svg" viewBox="0 0 800 400">
  <defs>
    <linearGradient id="bg" x1="0%" y1="0%" x2="100%" y2="100%">
      <stop offset="0%" style="stop-color:#f8fafc"/>
      <stop offset="100%" style="stop-color:#e2e8f0"/>
    </linearGradient>
  </defs>
  <rect fill="url(#bg)" width="800" height="400"/>

  <!-- AI Robot -->
  <g transform="translate(150, 120)">
    <rect x="20" y="60" width="80" height="100" rx="10" fill="#64748b"/>
    <rect x="30" y="20" width="60" height="50" rx="8" fill="#94a3b8"/>
    <circle cx="45" cy="40" r="8" fill="#2563eb"/>
    <circle cx="75" cy="40" r="8" fill="#2563eb"/>
    <rect x="40" y="55" width="40" height="5" rx="2" fill="#475569"/>
    <rect x="0" y="80" width="20" height="60" rx="5" fill="#64748b"/>
    <rect x="100" y="80" width="20" height="60" rx="5" fill="#64748b"/>
  </g>

  <!-- Question marks and legal symbols -->
  <text x="300" y="150" font-family="Arial" font-size="60" fill="#2563eb" opacity="0.3">?</text>
  <text x="350" y="200" font-family="Arial" font-size="80" fill="#dc2626" opacity="0.4">©</text>
  <text x="420" y="160" font-family="Arial" font-size="50" fill="#2563eb" opacity="0.3">?</text>

  <!-- License document -->
  <g transform="translate(500, 100)">
    <rect x="0" y="0" width="150" height="200" rx="5" fill="white" stroke="#e2e8f0" stroke-width="2"/>
    <rect x="20" y="20" width="110" height="10" rx="2" fill="#e2e8f0"/>
    <rect x="20" y="40" width="90" height="8" rx="2" fill="#f1f5f9"/>
    <rect x="20" y="55" width="100" height="8" rx="2" fill="#f1f5f9"/>
    <rect x="20" y="70" width="80" height="8" rx="2" fill="#f1f5f9"/>
    <rect x="20" y="85" width="95" height="8" rx="2" fill="#f1f5f9"/>
    <line x1="20" y1="110" x2="130" y2="110" stroke="#e2e8f0" stroke-width="2"/>
    <text x="75" y="150" font-family="Arial" font-size="24" fill="#dc2626" text-anchor="middle">∅</text>
    <text x="75" y="180" font-family="Arial" font-size="12" fill="#64748b" text-anchor="middle">No Owner?</text>
  </g>

  <!-- Arrow -->
  <path d="M280 200 L480 200" stroke="#94a3b8" stroke-width="3" stroke-dasharray="10,5" fill="none" marker-end="url(#arrow)"/>
  <defs>
    <marker id="arrow" markerWidth="10" markerHeight="10" refX="9" refY="3" orient="auto">
      <path d="M0,0 L0,6 L9,3 z" fill="#94a3b8"/>
    </marker>
  </defs>

  <text x="400" y="350" font-family="Arial" font-size="16" fill="#64748b" text-anchor="middle">AI Contributors × License System = ?</text>
</svg>
